<?xml version="1.0" encoding="utf-8"?>
<!-- Generator: Adobe Illustrator 23.0.3, SVG Export Plug-In . SVG Version: 6.00 Build 0)  -->
<svg version="1.1" id="Capa_1" xmlns="http://www.w3.org/2000/svg" xmlns:xlink="http://www.w3.org/1999/xlink" x="0px" y="0px"
	 viewBox="0 0 512.33 441.26" style="enable-background:new 0 0 512.33 441.26;" xml:space="preserve">
<style type="text/css">
	.st0{fill:#297FFF;}
	.st1{fill:#413C36;}
</style>
<circle class="st0" cx="255.71" cy="183.51" r="95.11"/>
<g>
	<rect x="416.05" y="63" class="st0" width="12.91" height="12.34"/>
	<rect x="441.83" y="63" class="st0" width="12.91" height="12.34"/>
	<rect x="428.91" y="75.34" class="st0" width="12.91" height="12.34"/>
	<rect x="428.91" y="50.66" class="st0" width="12.91" height="12.34"/>
</g>
<g>
	<rect x="57.59" y="37.55" class="st0" width="12.91" height="12.34"/>
	<rect x="83.37" y="37.55" class="st0" width="12.91" height="12.34"/>
	<rect x="70.45" y="49.89" class="st0" width="12.91" height="12.34"/>
	<rect x="70.45" y="25.21" class="st0" width="12.91" height="12.34"/>
</g>
<g>
	<rect x="83.23" y="274.5" class="st0" width="12.91" height="12.34"/>
	<rect x="109" y="274.5" class="st0" width="12.91" height="12.34"/>
	<rect x="96.09" y="286.84" class="st0" width="12.91" height="12.34"/>
	<rect x="96.09" y="262.16" class="st0" width="12.91" height="12.34"/>
</g>
<g>
	<rect x="121.73" y="344.58" class="st0" width="12.91" height="12.34"/>
	<rect x="147.51" y="344.58" class="st0" width="12.91" height="12.34"/>
	<rect x="134.59" y="356.92" class="st0" width="12.91" height="12.34"/>
	<rect x="134.59" y="332.24" class="st0" width="12.91" height="12.34"/>
</g>
<path class="st1" d="M57.88,144.63c0-3.1,0-6.2,0-9.3c0.29-0.38,0.68-0.72,0.85-1.15c4.26-10.61,11.42-14.74,22.82-12.91
	c1.83,0.29,2.57-0.6,3.47-1.73c8.46-10.59,16.9-21.19,25.43-31.71c1.25-1.54,1.26-2.74,0.49-4.5c-3.64-8.35-1.49-16.97,5.47-22.56
	c6.65-5.35,15.88-5.64,22.98-0.55c1.49,1.07,2.55,1.62,4.42,0.66c9.04-4.67,18.15-9.21,27.28-13.7c1.6-0.78,2.13-1.63,2.18-3.48
	c0.27-9.58,5.96-16.56,14.92-18.66c8.4-1.97,16.54,1.83,20.99,10.05c0.95,1.76,2.02,2.29,3.91,2.29c22.47-0.05,44.93-0.05,67.4,0
	c1.76,0,2.72-0.56,3.59-2.15c4.49-8.17,12.32-12.02,20.54-10.32c8.82,1.83,14.65,8.36,15.43,17.88c0.2,2.4,1.23,3.27,3.11,4.13
	c14.87,6.8,29.74,13.63,44.55,20.56c1.98,0.93,3.25,0.88,5.07-0.54c6.91-5.37,16.62-5.18,23.29,0.16
	c6.97,5.58,9.22,14.32,5.55,22.55c-0.88,1.97-0.64,3.18,0.67,4.79c8.45,10.42,16.83,20.91,25.14,31.45
	c1.21,1.54,2.32,1.95,4.24,1.59c9.8-1.84,18.63,3.21,21.83,12.31c3.16,8.99-0.42,18.41-9.07,23.06c-2.06,1.11-2.65,2.29-2.64,4.46
	c0.07,15.62,0.11,31.25-0.03,46.87c-0.02,2.58,0.85,3.78,3.08,5c8.93,4.91,12.25,15.66,7.91,24.69
	c-4.46,9.29-14.86,13.32-24.47,9.31c-1.95-0.81-3.18-0.61-4.78,0.73c-14.82,12.46-29.7,24.84-44.62,37.18
	c-1.59,1.32-2.08,2.49-1.63,4.59c1.81,8.51-1.76,16.59-9.34,20.59c-2.35,1.24-2.97,2.56-2.96,5.03c0.09,19.62,0.09,39.25,0.01,58.88
	c-0.01,2.53,0.53,4,3.03,5.38c12.34,6.81,13.19,23.71,1.88,32.04c-2.29,1.69-5.11,2.14-7.43,3.67c-2.84,0-5.68,0-8.52,0
	c-0.1-0.6-0.57-0.77-1.06-0.95c-8.2-3.06-12.95-8.94-13.28-17.67c-0.3-8.24,3.7-14.31,11.19-17.87c1.74-0.82,1.54-2.12,1.54-3.51
	c0-20.27-0.03-40.54,0.04-60.8c0.01-1.9-0.48-2.92-2.27-3.83c-5.76-2.92-9.39-7.6-10.2-14.1c-0.25-2.02-1.22-2.82-2.99-3.4
	c-17.48-5.77-34.96-11.55-52.4-17.47c-2.01-0.68-2.69-0.24-3.27,1.58c-1.86,5.89-3.72,11.79-5.81,17.6
	c-0.77,2.13-0.47,3.42,1.09,5.08c8.74,9.29,6.53,23.42-4.66,29.61c-2.16,1.19-2.79,2.44-2.77,4.77c0.11,13.3,0.11,26.59,0,39.89
	c-0.02,2.58,0.59,4.08,3.04,5.42c7.98,4.35,11.44,13.23,8.94,21.81c-2.18,7.51-7.75,11.41-14.7,13.85c-2.58,0-5.17,0-7.75,0
	c-0.41-0.27-0.78-0.64-1.22-0.79c-8.1-2.79-12.96-8.28-13.66-16.93c-0.68-8.49,3.12-14.74,10.61-18.55
	c2.03-1.03,1.95-2.35,1.95-4.03c-0.01-13.69-0.04-27.38,0.03-41.06c0.01-1.98-0.33-3.16-2.38-4.15c-5.42-2.63-8.83-7.17-9.87-13.08
	c-0.4-2.28-1.46-2.94-3.31-3.47c-16.48-4.67-32.96-9.38-49.42-14.12c-1.77-0.51-2.95-0.32-4.36,1.15
	c-7.51,7.82-18.84,8.25-26.74,1.21c-7.79-6.94-8.43-18.27-1.37-26.74c1.16-1.39,1.39-2.39,0.69-4.08
	c-3.53-8.57-6.93-17.2-10.3-25.84c-0.63-1.61-1.46-2.26-3.29-2.45c-8.38-0.9-14.05-5.47-16.63-13.48c-0.63-1.94-1.46-2.63-3.34-2.96
	c-9.78-1.69-19.56-3.39-29.29-5.34c-2.26-0.45-3.43-0.01-4.82,1.76c-8.74,11.13-25.94,9.12-32.09-3.63
	c-0.66-1.36-0.59-3.05-1.87-4.11c0-2.84,0-5.68,0-8.52c2.64-5.64,5.78-10.79,11.97-13.25c1.19-0.48,0.86-1.76,0.86-2.74
	c0.02-11.96,0.01-23.93,0.01-35.89c0-1,0.3-2.31-0.86-2.75C63.76,155.1,60.85,149.85,57.88,144.63z M257.65,280.38
	c1.62,5.57,3.24,11.14,4.85,16.71c0.26,0,0.52-0.01,0.78-0.01c1.82-5.83,3.63-11.65,5.45-17.48c1.35-1.82,1-2.97-1.26-3.57
	c-1.6-0.42-3.13-1.16-4.74-1.53c-2.41-0.56-5.52-3.18-6.92-1.47C254.46,274.68,256.63,277.94,257.65,280.38z M328.34,122.1
	c0.31,0.57,0.66,1,1.3,0.35c11.72-10.48,23.42-20.98,35.17-31.43c1.18-1.05,1.78-1.98,1.12-3.65c-0.51-1.29-0.78-2.78-0.7-4.16
	c0.13-2.32-0.96-3.35-2.95-4.26c-14.98-6.82-29.93-13.72-44.83-20.69c-1.86-0.87-3.06-0.85-4.75,0.5
	c-5.32,4.25-11.41,5.15-17.8,2.86c-2-0.72-3.21-0.51-4.74,0.94c-8.41,7.99-16.95,15.85-25.38,23.82c-0.63,0.59-2.45,0.96-1.21,2.56
	c14.87,11.22,29.73,22.44,44.59,33.68c0.88,0.67,1.65,1.05,2.76,0.38c5.65-3.4,11.53-2.72,17.47-0.89L328.34,122.1z M345.16,220.91
	c15.26,1.44,30.52,2.89,45.78,4.32c7.82,0.73,15.65,1.42,24.56,2.22c-15.39-12.85-29.92-24.96-44.43-37.11
	c-1.09-0.91-1.94-0.81-3.1-0.15c-5.7,3.24-11.45,6.4-17.18,9.58c-11.07,5.94-22.13,11.88-33.2,17.83c0.05,0.33,0.1,0.67,0.15,1
	C326.88,219.37,336.02,220.14,345.16,220.91z M169.58,225.31c-1.32,0.39-3.01,0.57-3.06,2.33c-0.06,1.95,1.88,1.76,3.1,2.26
	c0.7,0.29,1.47,0.41,2.21,0.61c20.81,7.01,41.61,14.02,63.3,21.33c-5.58-17.99-10.87-35.03-16.27-52.45
	C202.19,208.15,185.88,216.73,169.58,225.31z M243.57,279.39c-0.35-1.24-0.9-2.46-1.02-3.72c-0.68-7.19-5.04-10.07-11.69-12
	c-15.21-4.42-30.16-9.73-45.22-14.67c-7.05-2.44-14.11-4.86-21.15-7.33c-1.39-0.49-2.39-0.22-3.44,0.86
	c-1.1,1.12-0.56,2.07-0.13,3.14c3.5,8.72,7.01,17.44,10.45,26.18c0.58,1.47,1.29,2.13,2.99,2.37c9.91,1.41,15.22,6.25,17.46,15.91
	c0.35,1.5,0.91,2.14,2.34,2.55c16.97,4.82,33.92,9.72,50.89,14.52c2.89,0.82,6.41-2.86,5.53-5.73
	C248.31,294.09,245.91,286.75,243.57,279.39z M164.68,212.89c16.16-8.29,32.3-16.6,48.49-24.84c2.03-1.03,1.46-2.41,1-3.88
	c-3.01-9.72-6.08-19.42-9.01-29.17c-0.56-1.88-1.44-2.64-3.39-2.92c-4.37-0.63-8.7-2.47-10.75-6.21c-3.29-6-8.18-5.34-13.39-4.85
	c-2.44,0.23-4.88,0.4-7.32,0.59c-7.46,0.29-14.93,0.75-22.39,0.81c-3.62,0.03-4.45,1.28-3.97,4.76c2.72,19.9,5.25,39.83,7.85,59.75
	C152.54,212.68,159.79,216.02,164.68,212.89z M352.35,183.96c7.11-3.36,7.11-3.36,1.27-8.17c-0.58-0.48-1.24-0.87-1.87-1.3
	c-6.7-5.65-13.46-11.25-20.07-17.01c-1.52-1.32-2.68-0.89-4.17-0.28c-6.46,2.64-12.66,2.07-18.31-2.04
	c-1.66-1.21-2.83-1.12-4.49-0.25c-14.16,7.41-28.34,14.8-42.57,22.07c-2.26,1.15-2.55,1.87-0.65,3.73
	c7.75,7.58,15.39,15.27,23.02,22.98c1.2,1.21,2.29,1.84,4.05,1.2c6.17-2.24,11.93-1.23,17.22,2.55c1.22,0.87,2.21,0.87,3.52,0.15
	C323.64,199.69,338,191.83,352.35,183.96z M296.2,271.94c15.12,5.1,30.25,10.15,45.33,15.35c1.91,0.66,2.78-0.18,3.95-1.27
	c5.95-5.51,12.82-7.01,20.3-3.82c2.48,1.06,3.74,0.14,5.37-1.22c14.55-12.17,29.14-24.29,43.68-36.49c0.98-0.82,2.97-1.33,2.29-3.12
	c-0.61-1.59-2.43-1.17-3.78-1.29c-10.66-1-21.33-1.97-31.99-2.89c-14.26-1.24-28.53-2.42-42.79-3.63
	c-8.3-0.83-16.61-1.64-24.91-2.52c-1.46-0.16-2.1,0.63-2.72,1.66c-3.1,5.19-7.75,8.13-13.63,9.1c-1.78,0.29-2.6,1.09-3.14,2.79
	c-2.3,7.22-4.69,14.41-7.17,21.58c-0.62,1.79-0.65,2.86,1.5,3.4C291.09,270.21,293.63,271.13,296.2,271.94z M346.25,152.74
	c7.48,6.33,15.04,12.57,22.4,19.03c2.05,1.8,3.49,1.65,5.7,0.42c12.72-7.08,25.49-14.04,38.32-20.91c2.58-1.38,4.37-2.6,3.76-6.05
	c-0.39-2.22,0.37-4.62,1.63-6.65c1.12-1.8,0.71-3.14-0.62-4.78c-8.46-10.41-16.81-20.91-25.14-31.43c-1.15-1.45-2.14-2.28-4.17-1.64
	c-3.44,1.08-6.96,0.65-10.2-0.79c-2.09-0.92-3.4-0.57-5.04,0.93c-10.29,9.4-20.59,18.79-31.1,27.94c-2.77,2.41-4.3,4.57-2.49,8.08
	c-1.24,6.67-0.52,12.52,6.6,15.67C346.02,152.63,346.13,152.69,346.25,152.74z M242.01,89.67c0.24-0.67-0.33-0.88-0.7-1.16
	c-12.16-9.14-24.34-18.24-36.46-27.42c-1.48-1.12-2.56-0.98-4.16-0.23c-6.86,3.2-13.52,2.65-19.69-1.8
	c-1.4-1.01-2.43-1.39-4.12-0.52c-9.16,4.7-18.38,9.27-27.6,13.84c-1.24,0.61-1.92,1.17-1.9,2.85c0.07,6.94-2.86,12.43-8.68,16.26
	c-1.37,0.9-1.76,1.88-1.52,3.53c1.51,10.72,3.01,21.44,4.24,32.19c0.29,2.52,1.25,2.86,3.39,2.73c11.33-0.66,22.66-1.22,33.98-1.81
	c1.79-0.06,3.59-0.2,5.38-0.16c1.95,0.04,2.83-0.93,3.67-2.64c4.61-9.46,13.6-13.11,23.86-9.79c1.33,0.43,2.37,0.66,3.5-0.43
	C224.08,106.57,233.45,98.54,242.01,89.67z M83.47,177.98c0,5.8,0.09,11.61-0.05,17.41c-0.05,2.17,0.51,3.43,2.6,4.45
	c4.59,2.25,7.73,5.95,9.08,10.95c0.54,2.01,1.57,2.83,3.64,3.17c8.13,1.33,16.26,2.74,24.33,4.4c4.62,0.95,9.03,2.14,11.77-3.31
	c0.32-0.63,1.09-1.19,1.78-1.44c3.04-1.11,2.86-3.42,2.5-5.96c-1.04-7.4-1.99-14.81-2.97-22.22c-1.72-13.03-3.44-26.06-5.16-39.09
	c-0.2-1.52-0.07-2.97-2.53-2.82c-10.17,0.64-20.35,1.11-30.53,1.54c-1.95,0.08-2.93,0.81-3.68,2.61c-1.69,4.07-4.65,7.11-8.66,8.95
	c-1.67,0.77-2.2,1.77-2.17,3.56C83.53,166.11,83.47,172.04,83.47,177.98z M301.73,135.23c0.59-1.55-0.89-2.08-1.86-2.8
	c-14.85-11.17-29.76-22.27-44.56-33.51c-1.89-1.44-2.89-1.16-4.48,0.35c-8.6,8.19-17.3,16.27-26.03,24.33
	c-1.47,1.36-2.12,2.51-1.37,4.65c1.22,3.48,1.11,7.15-0.22,10.62c-0.76,2.01-0.3,3.29,1.18,4.75c7.82,7.7,15.6,15.44,23.26,23.29
	c1.67,1.71,2.91,1.78,4.97,0.7c13.92-7.34,27.83-14.68,41.91-21.69c4.33-2.15,7.75-4.27,6.91-9.77
	C301.43,135.93,301.6,135.67,301.73,135.23z M277.1,215.28c0.06-1.22-0.94-1.78-1.63-2.48c-8.75-8.78-17.54-17.51-26.26-26.33
	c-1.27-1.29-2.28-1.67-3.97-0.73c-4.05,2.26-8.19,4.37-12.36,6.42c-1.8,0.88-2.33,1.76-1.66,3.88c6.13,19.42,12.13,38.88,18.1,58.35
	c0.51,1.65,1.35,2.6,2.98,3.13c6.38,2.06,12.74,4.16,19.07,6.38c2.04,0.72,2.87,0.27,3.53-1.82c2.27-7.26,4.75-14.45,7.15-21.66
	c0.32-0.96,1.09-2.04,0.22-2.9C275.83,231.19,273.84,223.86,277.1,215.28z M382.26,182.43c0.31,0.58,0.37,0.85,0.54,0.99
	c13.76,11.49,27.53,22.97,41.27,34.48c1.09,0.91,1.96,1.2,3.43,0.55c1.81-0.81,1.55-2.14,1.55-3.52c0.01-16,0.02-31.99,0-47.99
	c0-3.92-5.45-7.07-8.93-5.18c-9.39,5.1-18.76,10.23-28.14,15.35C388.74,178.89,385.5,180.66,382.26,182.43z M212.35,50.63
	c0.42,0.37,0.74,0.71,1.11,0.99c12.17,9.13,24.38,18.2,36.46,27.43c1.96,1.5,2.93,1.01,4.45-0.44c8.89-8.43,17.88-16.75,26.81-25.15
	c0.8-0.75,2.38-1.4,1.94-2.6c-0.55-1.52-2.27-0.73-3.44-0.73c-21.41-0.05-42.82-0.04-64.23-0.01
	C214.5,50.12,213.44,49.73,212.35,50.63z M111.32,131.57c0,0.02,0,0.04,0,0.07c4.9-0.28,9.79-0.65,14.69-0.79
	c2.17-0.06,3.07-0.28,2.66-2.99c-1.57-10.33-2.78-20.7-4.12-31.06c-0.13-0.98,0.09-2.12-1.23-2.56c-1.46-0.5-2.09,0.53-2.82,1.44
	c-8.54,10.68-17.09,21.36-25.63,32.04c-0.78,0.98-1.7,1.78-0.81,3.37c0.88,1.58,2.13,1.2,3.33,1.15
	C102.04,132.05,106.68,131.79,111.32,131.57z M219.46,157.87c1.33,4.39,2.37,8.36,3.75,12.21c1.24,3.46,0.97,8.83,3.94,9.92
	c2.88,1.06,6.5-2.79,9.83-4.41c0.17-0.08,0.23-0.37,0.07-0.09C231.25,169.69,225.56,163.98,219.46,157.87z M153.85,229.12
	c-0.11-3.39-3.27-6.34-6.63-6.18c-3.45,0.17-6.28,3.29-6.06,6.7c0.21,3.37,3,5.95,6.4,5.91
	C151.05,235.52,153.96,232.54,153.85,229.12z M320.16,146.07c3.31,0.06,6.47-3.06,6.46-6.37c-0.01-3.23-2.82-6.13-6.09-6.28
	c-3.43-0.15-6.51,2.68-6.62,6.1C313.8,142.85,316.82,146.01,320.16,146.07z M77.26,146.07c3.37-0.11,6.32-3.28,6.17-6.63
	c-0.16-3.45-3.26-6.25-6.7-6.04c-3.37,0.2-5.94,2.98-5.9,6.37C70.87,143.3,73.82,146.18,77.26,146.07z M179.44,293.41
	c0.09-3.46-2.8-6.38-6.33-6.4c-3.37-0.02-6.17,2.6-6.35,5.95c-0.19,3.43,2.64,6.52,6.09,6.65
	C176.26,299.74,179.36,296.82,179.44,293.41z M435.34,139.86c-3.57,0.05-6.35,2.93-6.23,6.45c0.11,3.31,2.92,6.05,6.24,6.09
	c3.56,0.05,6.35-2.71,6.34-6.3C441.68,142.52,438.92,139.8,435.34,139.86z M384.31,75.74c-3.37-0.04-6.41,3.01-6.39,6.4
	c0.02,3.32,2.74,6.12,6.08,6.26c3.51,0.14,6.44-2.62,6.51-6.13C390.58,78.74,387.77,75.78,384.31,75.74z M77.2,222.85
	c3.36-0.06,6.35-3.2,6.23-6.55c-0.12-3.48-3.13-6.23-6.64-6.07c-3.38,0.15-5.96,2.88-5.96,6.28
	C70.84,220.05,73.71,222.91,77.2,222.85z M301.01,222.73c-0.11-3.47-3.09-6.21-6.61-6.08c-3.47,0.12-6.28,3.18-6.06,6.6
	c0.21,3.32,3.04,5.94,6.38,5.91C298.21,229.12,301.12,226.14,301.01,222.73z M128.38,69.43c-3.57-0.06-6.35,2.69-6.35,6.27
	c0,3.45,2.55,6.13,5.95,6.26c3.59,0.14,6.49-2.52,6.61-6.06C134.71,72.43,131.89,69.49,128.38,69.43z M300.89,37.46
	c-3.55,0.08-6.2,2.94-6.06,6.52c0.13,3.38,2.88,6.07,6.21,6.08c3.38,0.01,6.39-3.03,6.35-6.42
	C307.35,40.15,304.43,37.38,300.89,37.46z M198.64,43.52c-0.12-3.47-3.12-6.18-6.66-6.04c-3.35,0.14-6.1,2.95-6.09,6.24
	c0,3.33,3.16,6.41,6.48,6.35C195.75,50.01,198.76,46.86,198.64,43.52z M358.87,293.39c-3.52-0.12-6.45,2.65-6.52,6.16
	c-0.07,3.4,2.49,6.17,5.89,6.37c3.62,0.21,6.51-2.37,6.66-5.92C365.04,296.38,362.42,293.5,358.87,293.39z M268.96,402.26
	c0.09-3.48-2.75-6.47-6.21-6.53c-3.37-0.06-6.44,2.97-6.44,6.34c0,3.34,2.68,6.1,6.07,6.23
	C265.95,408.45,268.87,405.78,268.96,402.26z M358.75,408.32c3.57-0.05,6.24-2.85,6.14-6.44c-0.09-3.41-2.77-6.08-6.14-6.14
	c-3.43-0.06-6.4,2.87-6.4,6.33C352.34,405.59,355.18,408.37,358.75,408.32z M262.56,325.19c3.5,0.06,6.38-2.8,6.38-6.31
	c0-3.38-2.63-6.13-6-6.26c-3.57-0.14-6.52,2.56-6.64,6.07C256.19,322.08,259.13,325.14,262.56,325.19z M205.06,139.61
	c3.46,0.02,6.33-2.91,6.29-6.39c-0.05-3.3-2.81-6.15-6.07-6.27c-3.44-0.13-6.39,2.73-6.44,6.24
	C198.77,136.73,201.55,139.6,205.06,139.61z M441.7,235.81c0.06-3.51-2.8-6.48-6.24-6.49c-3.36-0.01-6.42,3.09-6.37,6.46
	c0.05,3.23,2.91,6.16,6.14,6.29C438.65,242.2,441.65,239.31,441.7,235.81z"/>
<g>
	<rect x="377.71" y="331.12" class="st0" width="12.91" height="12.34"/>
	<rect x="403.49" y="331.12" class="st0" width="12.91" height="12.34"/>
	<rect x="390.58" y="343.46" class="st0" width="12.91" height="12.34"/>
	<rect x="390.58" y="318.78" class="st0" width="12.91" height="12.34"/>
</g>
</svg>
